<?xml version="1.0" encoding="UTF-8"?><svg id="Capa_1" xmlns="http://www.w3.org/2000/svg" viewBox="0 0 1080 1080"><path d="M704.69,768.56c39.87,28.21,57.56,79.11,42.34,125.52-15.54,47.36-58.33,84.87-114.64,86.43-1.67.05-3.34.07-5.01.07-73.62,0-101.5-45.73-166.19-122.69L155.55,494.27c-44.62-52.42-101.5-7.81-66.92,45.73l139.42,213.04c22.31,33.46,36.81,70.27,27.88,123.81-10.04,55.77-61.35,103.73-140.54,103.73S-5.07,923.7.51,826.66L39.55,243.3c7.81-105.96,71.39-143.89,134.96-143.89,113.77,0,110.42,117.12,37.92,203l-17.85,21.19c-30.12,36.81-46.85,74.73-31.23,99.27,29,45.73,68.04,23.42,123.81-18.96l291.12-220.85c72.5-54.65,120.46-83.65,189.62-83.65,62.46,0,108.19,71.39,97.04,138.31-13.38,78.08-60.23,109.31-161.73,131.62l-349.12,75.85c-43.5,8.92-102.62,15.62-108.19,49.08-4.46,24.54,4.46,50.19,42.39,68.04l373.1,179.05c10.02,4.81,19.62,10.45,28.69,16.87l14.61,10.34Z" fill="#1d1d1b"/><path d="M1080,854.82c0,68.99-64.85,124.92-133.85,124.92s-116-24.54-124.92-124.92c-6.11-68.72,56.54-115.81,124.92-124.92,66.92-8.92,133.85,55.93,133.85,124.92Z" fill="#1d1d1b"/></svg>